<?xml version="1.0" encoding="UTF-8" standalone="no"?>
<svg xmlns="http://www.w3.org/2000/svg" version="1.1" width="1024" height="390" viewBox="-1.0706265 -1.0706265 99.297564 37.828803" id="svg7821">
  <path d="m 62.25006,0 0,21.65625 0,5.78125 5.53124,0 0,-5.78125 L 67.7813,0 62.25006,0 z M 5e-5,0.5625 l 0,5.75 4.5,0 0,15.34375 0,5.78125 3.71875,0 c 3.92543,0 7.40663,-2.02071 9.40625,-5.75 l 0.0312,0 c 0.004,-0.008 -0.004,-0.023 0,-0.0312 1.13327,-2.1412 1.7911,-4.84339 1.75,-8.0625 C 19.31005,6.17505 15.20375,0.56255 9.5,0.56255 l -9.5,0 z M 27.1563,6.78125 c -5.05374,0 -7.25,5.81125 -7.25,10.9375 0,1.4375 0.1525,2.73875 0.46875,3.9375 0.805,3.05125 2.60626,5.245 5.21875,6.03125 0.7075,0.21375 1.45625,0.3125 2.28125,0.3125 0.9325,0 1.74,-0.0987 2.46876,-0.3125 1.42749,-0.42125 2.59625,-1.23625 4.03125,-2.34375 -0.9075,-1.36125 -1.47876,-2.29625 -2.46875,-3.6875 -0.12876,-0.1825 -0.26125,-0.36125 -0.40625,-0.5625 -0.26626,0.18875 -0.5575,0.375 -0.84375,0.5625 C 29.96756,22.1025 29.2013,22.5 28.18755,22.5 c -0.78625,0 -1.50625,-0.295 -1.96875,-0.84375 -0.3675,-0.4375 -0.58124,-1.05 -0.49999,-1.84375 l 8.34375,0 0,-2.96875 c 0,-4.7725 -2.1725,-10.0625 -6.90626,-10.0625 z m 27.09376,0 c -5.05375,0 -7.28126,5.81125 -7.28126,10.9375 0,1.4375 0.18376,2.73875 0.5,3.9375 0.80375,3.05125 2.6075,5.245 5.21875,6.03125 C 53.3963,27.90125 54.1438,28 54.9688,28 c 0.93251,0 1.74001,-0.0987 2.46875,-0.3125 1.42751,-0.42125 2.59501,-1.23625 4.03126,-2.34375 -0.9075,-1.36125 -1.47875,-2.29625 -2.46876,-3.6875 -0.12874,-0.1825 -0.26125,-0.36125 -0.40625,-0.5625 -0.26625,0.18875 -0.55749,0.375 -0.84375,0.5625 C 57.0613,22.1025 56.29505,22.5 55.2813,22.5 c -0.78624,0 -1.53749,-0.295 -2,-0.84375 -0.36749,-0.4375 -0.54999,-1.05 -0.46875,-1.84375 l 8.34375,0 0,-2.96875 c 0,-4.7725 -2.17375,-10.0625 -6.90625,-10.0625 z m 21.56249,0 c -5.05374,0 -7.28125,5.81125 -7.28125,10.9375 0,1.4375 0.18376,2.73875 0.5,3.9375 0.80376,3.05125 2.6075,5.245 5.21875,6.03125 C 74.9588,27.90125 75.7063,28 76.5313,28 c 0.93251,0 1.74001,-0.0987 2.46875,-0.3125 1.42751,-0.42125 2.595,-1.23625 4.03125,-2.34375 -0.9075,-1.36125 -1.47874,-2.29625 -2.46875,-3.6875 -0.12999,-0.1825 -0.26125,-0.36125 -0.40625,-0.5625 -0.26625,0.18875 -0.5575,0.375 -0.84375,0.5625 C 78.6238,22.1025 77.85881,22.5 76.8438,22.5 c -0.78499,0 -1.53749,-0.295 -2,-0.84375 -0.36875,-0.4375 -0.55125,-1.05 -0.46875,-1.84375 l 8.34375,0 0,-2.96875 c 0,-4.7725 -2.17375,-10.0625 -6.90625,-10.0625 z M 10.0313,6.84375 c 1.5575,-0.32875 3.625,2.96375 3.625,6.625 0,4.2175 -1.5875,7.35375 -3.625,7.5 l 0,-14.125 z m 23.12501,0.53125 3.09375,14.28125 1.25,5.78125 6.0625,0 1.25,-5.78125 3.09375,-14.28125 -5.375,0 c 0,0 -1.85125,10.19625 -1.90625,10.28125 -0.055,0.0862 -1.945,-10.28125 -2,-10.28125 l -5.46875,0 z m 48.71875,0 3.21875,14.28125 1.3125,5.78125 0.875,0 -0.0625,0.25 -0.375,2.00005 -0.375,2 -0.3125,1.5 -0.21875,1.25 -0.25,1.2187 5.625,0 0.25,-1.2187 0.25,-1.25 0.3125,-1.5 0.40625,-2 0.4375,-2.00005 1.21875,-6.03125 2.96875,-14.28125 -5.78125,0 -1.65625,10.46875 -2,-10.46875 -5.84375,0 z M 27.03131,12.25 c 1.29,0 1.5,1.42875 1.5,2.96875 l -3.125,0 c 0,-1.055 -0.0625,-2.96875 1.625,-2.96875 z m 27.09375,0 c 1.29,0 1.5,1.42875 1.5,2.96875 l -3.125,0 c 0,-1.055 -0.0625,-2.96875 1.625,-2.96875 z m 21.5625,0 c 1.28875,0 1.5,1.42875 1.5,2.96875 l -3.125,0 c 0,-1.055 -0.0637,-2.96875 1.625,-2.96875 z" style="fill:#006d25;fill-opacity:1;fill-rule:evenodd;stroke:none" />
</svg>
